:SAMPLES-PER-SECOND 30
:FULLY-SPECIFIED
:DEGREES
188
root  -12.6055 34.5883 -17.8303 -171.387 0.536942 179.546
RightUpLeg  -7.77816 -14.0047 -1.17871
RightLeg  6.73083 -1.47697 -0.0652928
RightFoot  2.83583 -0.0153046 0.0782775
RightToes  -23.4339 -0.101417 -0.20347
Spine  -2.77459 0.0644861 0.328017
Spine1  -5.63677 0.148353 1.21219
HEad  -60.3689 1.47259 4.83814
LeftShoulder1  -1.94126e-019 -3.10601e-018 -2.51263e-017
LeftArm  -10.9328 25.7067 -82.8925
LeftForeArm  32.8058 -14.1772 -2.27196
LeftHand  -0.28477 -0.650908 5.606
RightShoulder  -4.96962e-017 0 -2.36833e-017
RightArm  -24.3614 -26.4596 74.7325
RightForeArm  49.706 16.3658 1.21942
RightHand  -0.303918 -1.43112 -8.57654
LeftUpLeg  -7.32148 -2.48433 0.806127
LeftLeg  6.55141 12.4412 0.617327
LeftFoot  3.42118 0.0297702 0.872364
LeftToes  -16.7044 1.48347e-006 1.01831e-007
189
root  -12.5912 34.5887 -17.835 -171.387 0.540375 179.547
RightUpLeg  -7.77115 -14.0199 -1.1579
RightLeg  6.73066 -1.46392 -0.0671184
RightFoot  2.80768 -0.0147246 0.0788128
RightToes  -23.3822 -0.101243 -0.203444
Spine  -2.78406 0.0633707 0.325102
Spine1  -5.65553 0.146435 1.20199
HEad  -60.4114 1.4587 4.85509
LeftShoulder1  -1.94126e-019 -3.10601e-018 -2.51263e-017
LeftArm  -10.9075 25.695 -82.8885
LeftForeArm  32.8039 -14.1814 -2.27379
LeftHand  -0.284722 -0.642929 5.65097
RightShoulder  -4.96962e-017 0 -2.36833e-017
RightArm  -24.3526 -26.464 74.6809
RightForeArm  49.7232 16.317 1.21741
RightHand  -0.304181 -1.43202 -8.54826
LeftUpLeg  -7.3033 -2.48286 0.825704
LeftLeg  6.52888 12.4422 0.612994
LeftFoot  3.40693 0.029598 0.874231
LeftToes  -16.5194 1.48347e-006 1.01831e-007
190
root  -12.5846 34.5891 -17.8375 -171.386 0.543777 179.547
RightUpLeg  -7.76876 -14.0045 -1.14638
RightLeg  6.73382 -1.46742 -0.0667243
RightFoot  2.79683 -0.0140956 0.0793378
RightToes  -23.3664 -0.101027 -0.203323
Spine  -2.78791 0.0616663 0.322603
Spine1  -5.66316 0.144228 1.19736
HEad  -60.4496 1.45708 4.85177
LeftShoulder1  -1.94126e-019 -3.10601e-018 -2.51263e-017
LeftArm  -10.896 25.6898 -82.8799
LeftForeArm  32.8228 -14.1624 -2.27211
LeftHand  -0.286308 -0.641475 5.60625
RightShoulder  -4.96962e-017 0 -2.36833e-017
RightArm  -24.3502 -26.4662 74.6658
RightForeArm  49.7732 16.2964 1.21522
RightHand  -0.303925 -1.45396 -8.53508
LeftUpLeg  -7.29601 -2.47821 0.835117
LeftLeg  6.51919 12.438 0.612981
LeftFoot  3.43228 0.0293285 0.875646
LeftToes  -16.6786 1.48347e-006 1.01831e-007
191
root  -12.5607 34.5893 -17.8422 -171.376 0.580994 179.569
RightUpLeg  -7.7883 -13.9706 -1.08525
RightLeg  6.75595 -1.46934 -0.066603
RightFoot  2.7795 -0.0134151 0.0798303
RightToes  -23.3446 -0.10077 -0.202906
Spine  -2.80326 0.0594868 0.316874
Spine1  -5.69388 0.155633 1.18946
HEad  -60.5625 1.49664 4.85619
LeftShoulder1  -1.94126e-019 -3.10601e-018 -2.51263e-017
LeftArm  -10.7807 25.7417 -82.8623
LeftForeArm  32.673 -14.1842 -2.27687
LeftHand  -0.286235 -0.640276 5.67214
RightShoulder  -4.96962e-017 0 -2.36833e-017
RightArm  -24.3019 -26.4999 74.6532
RightForeArm  49.8477 16.2839 1.21767
RightHand  -0.302567 -1.38895 -8.55991
LeftUpLeg  -7.29111 -2.42496 0.89204
LeftLeg  6.51344 12.4263 0.615676
LeftFoot  3.42866 0.0289565 0.876625
LeftToes  -16.7038 1.48347e-006 1.01831e-007
192
root  -12.5483 34.5894 -17.8479 -171.369 0.597977 179.566
RightUpLeg  -7.77807 -13.9888 -1.07083
RightLeg  6.73759 -1.43354 -0.0717196
RightFoot  2.75267 -0.0126808 0.080268
RightToes  -23.2668 -0.100476 -0.202422
Spine  -2.80338 0.056946 0.312093
Spine1  -5.69393 0.157125 1.1775
HEad  -60.6869 1.52318 4.83667
LeftShoulder1  -1.94126e-019 -3.10601e-018 -2.51263e-017
LeftArm  -10.813 25.7474 -82.8647
LeftForeArm  32.7205 -14.1389 -2.26986
LeftHand  -0.287656 -0.627183 5.65269
RightShoulder  -4.96962e-017 0 -2.36833e-017
RightArm  -24.2914 -26.5122 74.676
RightForeArm  49.8358 16.2987 1.21618
RightHand  -0.302396 -1.43429 -8.53269
LeftUpLeg  -7.27672 -2.46613 0.906979
LeftLeg  6.49643 12.4834 0.610361
LeftFoot  3.43434 0.0284766 0.877185
LeftToes  -16.7138 1.48347e-006 1.01831e-007
193
root  -12.532 34.5892 -17.8551 -171.347 0.628281 179.58
RightUpLeg  -7.79851 -13.9777 -1.02733
RightLeg  6.74972 -1.41473 -0.0745773
RightFoot  2.73682 -0.0118901 0.0806288
RightToes  -23.2597 -0.100148 -0.201879
Spine  -2.8076 0.0541577 0.313388
Spine1  -5.70905 0.15669 1.1795
HEad  -60.794 1.59377 4.80453
LeftShoulder1  -1.94126e-019 -3.10601e-018 -2.51263e-017
LeftArm  -10.7762 25.789 -82.869
LeftForeArm  32.6572 -14.0957 -2.2644
LeftHand  -0.289299 -0.633179 5.6893
RightShoulder  -4.96962e-017 0 -2.36833e-017
RightArm  -24.2316 -26.5224 74.7005
RightForeArm  49.8307 16.3096 1.21626
RightHand  -0.302107 -1.40877 -8.50478
LeftUpLeg  -7.29697 -2.39591 0.944489
LeftLeg  6.5216 12.458 0.61635
LeftFoot  3.44006 0.0278838 0.877343
LeftToes  -16.7598 1.48347e-006 1.01831e-007
194
root  -12.5226 34.5886 -17.8599 -171.34 0.63887 179.58
RightUpLeg  -7.80207 -13.9659 -1.01452
RightLeg  6.75798 -1.41982 -0.0740753
RightFoot  2.70912 -0.0110407 0.0808903
RightToes  -23.2257 -0.099789 -0.201283
Spine  -2.81211 0.0512362 0.308671
Spine1  -5.71169 0.154838 1.17284
HEad  -60.8552 1.63463 4.78145
LeftShoulder1  -1.94126e-019 -3.10601e-018 -2.51263e-017
LeftArm  -10.7939 25.7965 -82.8763
LeftForeArm  32.6953 -14.0171 -2.25306
LeftHand  -0.293455 -0.611982 5.63156
RightShoulder  -4.96962e-017 0 -2.36833e-017
RightArm  -24.2284 -26.5304 74.7398
RightForeArm  49.8524 16.3253 1.21325
RightHand  -0.300721 -1.40349 -8.51308
LeftUpLeg  -7.29595 -2.39202 0.955471
LeftLeg  6.52751 12.4691 0.617324
LeftFoot  3.43657 0.0271727 0.877114
LeftToes  -16.8636 1.48347e-006 1.01831e-007
195
root  -12.5105 34.5877 -17.8654 -171.328 0.651321 179.58
RightUpLeg  -7.80721 -13.9884 -0.99434
RightLeg  6.75757 -1.3908 -0.0781025
RightFoot  2.69272 -0.0101302 0.0810304
RightToes  -23.1884 -0.0994013 -0.200643
Spine  -2.81433 0.0482951 0.304066
Spine1  -5.7199 0.150666 1.1635
HEad  -60.9001 1.66206 4.74243
LeftShoulder1  -1.94126e-019 -3.10601e-018 -2.51263e-017
LeftArm  -10.8094 25.8115 -82.8791
LeftForeArm  32.7508 -13.9233 -2.23993
LeftHand  -0.295153 -0.658711 5.7307
RightShoulder  -4.96962e-017 0 -2.36833e-017
RightArm  -24.2196 -26.5339 74.7883
RightForeArm  49.8498 16.3148 1.21307
RightHand  -0.298524 -1.38061 -8.54647
LeftUpLeg  -7.30242 -2.34375 0.977365
LeftLeg  6.53551 12.4207 0.625288
LeftFoot  3.4235 0.0263381 0.876514
LeftToes  -16.7858 1.48347e-006 1.01831e-007
196
root  -12.4904 34.5854 -17.877 -171.286 0.668823 179.603
RightUpLeg  -7.83725 -13.9559 -0.934279
RightLeg  6.76341 -1.39769 -0.0771929
RightFoot  2.6788 -0.00915604 0.0810268
RightToes  -23.2311 -0.0989881 -0.199966
Spine  -2.81562 0.0454482 0.305804
Spine1  -5.72633 0.137648 1.16725
HEad  -61.0246 1.7725 4.66479
LeftShoulder1  -1.94126e-019 -3.10601e-018 -2.51263e-017
LeftArm  -10.8588 25.8231 -82.8985
LeftForeArm  32.7858 -13.7845 -2.22254
LeftHand  -0.296938 -0.731293 5.74268
RightShoulder  -4.96962e-017 0 -2.36833e-017
RightArm  -24.1911 -26.5467 74.8735
RightForeArm  49.8194 16.358 1.21529
RightHand  -0.298026 -1.38 -8.50723
LeftUpLeg  -7.34416 -2.27701 1.03163
LeftLeg  6.57656 12.3827 0.630397
LeftFoot  3.41532 0.0253747 0.875561
LeftToes  -16.9502 1.48347e-006 1.01831e-007
197
root  -12.4818 34.5843 -17.8817 -171.278 0.661606 179.603
RightUpLeg  -7.83453 -13.9365 -0.921823
RightLeg  6.76815 -1.41742 -0.0746451
RightFoot  2.6478 -0.0081159 0.0808573
RightToes  -23.1883 -0.0985523 -0.199259
Spine  -2.81646 0.0428098 0.300032
Spine1  -5.72488 0.136062 1.15736
HEad  -61.0871 1.79333 4.66044
LeftShoulder1  -1.94126e-019 -3.10601e-018 -2.51263e-017
LeftArm  -10.8695 25.8218 -82.8937
LeftForeArm  32.8279 -13.7626 -2.21941
LeftHand  -0.297092 -0.713018 5.67983
RightShoulder  -4.96962e-017 0 -2.36833e-017
RightArm  -24.1988 -26.5682 74.9258
RightForeArm  49.8162 16.3747 1.21593
RightHand  -0.295768 -1.39768 -8.47672
LeftUpLeg  -7.3375 -2.34034 1.04443
LeftLeg  6.5674 12.4378 0.621093
LeftFoot  3.41294 0.0242772 0.874271
LeftToes  -16.9333 1.48347e-006 1.01831e-007
